<?xml version="1.0" encoding="utf-8"?>
<!-- Generator: Adobe Illustrator 27.1.1, SVG Export Plug-In . SVG Version: 6.00 Build 0)  -->
<svg version="1.1" id="Layer_1" xmlns="http://www.w3.org/2000/svg" xmlns:xlink="http://www.w3.org/1999/xlink" x="0px" y="0px"
	 viewBox="0 0 900 900" style="enable-background:new 0 0 900 900;" xml:space="preserve">
<style type="text/css">
	.st0{fill:#8B8F92;stroke:#000000;stroke-miterlimit:10;}
	.st1{stroke:#E2E3E4;stroke-width:0.68;}
</style>
<rect class="st0" width="900" height="900"/>
<g transform="translate(-3,14) scale(1)">
	<path marker-end="" class="st1" d="M38,21h415"/>
	<path marker-end="" class="st1" d="M38,21l415,55.3"/>
	<path marker-end="" class="st1" d="M38,21l415,110.7"/>
	<path marker-end="" class="st1" d="M38,21l415,166"/>
	<path marker-end="" class="st1" d="M38,21l415,221.3"/>
	<path marker-end="" class="st1" d="M38,21l415,276.7"/>
	<path marker-end="" class="st1" d="M38,21l415,332"/>
	<path marker-end="" class="st1" d="M38,21l415,387.3"/>
	<path marker-end="" class="st1" d="M38,21l415,442.7"/>
	<path marker-end="" class="st1" d="M38,21l415,498"/>
	<path marker-end="" class="st1" d="M38,21l415,553.3"/>
	<path marker-end="" class="st1" d="M38,21l415,608.7"/>
	<path marker-end="" class="st1" d="M38,76.3L453,21"/>
	<path marker-end="" class="st1" d="M38,76.3h415"/>
	<path marker-end="" class="st1" d="M38,76.3l415,55.3"/>
	<path marker-end="" class="st1" d="M38,76.3L453,187"/>
	<path marker-end="" class="st1" d="M38,76.3l415,166"/>
	<path marker-end="" class="st1" d="M38,76.3l415,221.3"/>
	<path marker-end="" class="st1" d="M38,76.3L453,353"/>
	<path marker-end="" class="st1" d="M38,76.3l415,332"/>
	<path marker-end="" class="st1" d="M38,76.3l415,387.3"/>
	<path marker-end="" class="st1" d="M38,76.3L453,519"/>
	<path marker-end="" class="st1" d="M38,76.3l415,498"/>
	<path marker-end="" class="st1" d="M38,76.3l415,553.3"/>
	<path marker-end="" class="st1" d="M38,131.7L453,21"/>
	<path marker-end="" class="st1" d="M38,131.7l415-55.3"/>
	<path marker-end="" class="st1" d="M38,131.7h415"/>
	<path marker-end="" class="st1" d="M38,131.7L453,187"/>
	<path marker-end="" class="st1" d="M38,131.7l415,110.7"/>
	<path marker-end="" class="st1" d="M38,131.7l415,166"/>
	<path marker-end="" class="st1" d="M38,131.7L453,353"/>
	<path marker-end="" class="st1" d="M38,131.7l415,276.7"/>
	<path marker-end="" class="st1" d="M38,131.7l415,332"/>
	<path marker-end="" class="st1" d="M38,131.7L453,519"/>
	<path marker-end="" class="st1" d="M38,131.7l415,442.7"/>
	<path marker-end="" class="st1" d="M38,131.7l415,498"/>
	<path marker-end="" class="st1" d="M38,187L453,21"/>
	<path marker-end="" class="st1" d="M38,187L453,76.3"/>
	<path marker-end="" class="st1" d="M38,187l415-55.3"/>
	<path marker-end="" class="st1" d="M38,187h415"/>
	<path marker-end="" class="st1" d="M38,187l415,55.3"/>
	<path marker-end="" class="st1" d="M38,187l415,110.7"/>
	<path marker-end="" class="st1" d="M38,187l415,166"/>
	<path marker-end="" class="st1" d="M38,187l415,221.3"/>
	<path marker-end="" class="st1" d="M38,187l415,276.7"/>
	<path marker-end="" class="st1" d="M38,187l415,332"/>
	<path marker-end="" class="st1" d="M38,187l415,387.3"/>
	<path marker-end="" class="st1" d="M38,187l415,442.7"/>
	<path marker-end="" class="st1" d="M38,242.3L453,21"/>
	<path marker-end="" class="st1" d="M38,242.3l415-166"/>
	<path marker-end="" class="st1" d="M38,242.3l415-110.7"/>
	<path marker-end="" class="st1" d="M38,242.3L453,187"/>
	<path marker-end="" class="st1" d="M38,242.3h415"/>
	<path marker-end="" class="st1" d="M38,242.3l415,55.3"/>
	<path marker-end="" class="st1" d="M38,242.3L453,353"/>
	<path marker-end="" class="st1" d="M38,242.3l415,166"/>
	<path marker-end="" class="st1" d="M38,242.3l415,221.3"/>
	<path marker-end="" class="st1" d="M38,242.3L453,519"/>
	<path marker-end="" class="st1" d="M38,242.3l415,332"/>
	<path marker-end="" class="st1" d="M38,242.3l415,387.3"/>
	<path marker-end="" class="st1" d="M38,297.7L453,21"/>
	<path marker-end="" class="st1" d="M38,297.7L453,76.3"/>
	<path marker-end="" class="st1" d="M38,297.7l415-166"/>
	<path marker-end="" class="st1" d="M38,297.7L453,187"/>
	<path marker-end="" class="st1" d="M38,297.7l415-55.3"/>
	<path marker-end="" class="st1" d="M38,297.7h415"/>
	<path marker-end="" class="st1" d="M38,297.7L453,353"/>
	<path marker-end="" class="st1" d="M38,297.7l415,110.7"/>
	<path marker-end="" class="st1" d="M38,297.7l415,166"/>
	<path marker-end="" class="st1" d="M38,297.7L453,519"/>
	<path marker-end="" class="st1" d="M38,297.7l415,276.7"/>
	<path marker-end="" class="st1" d="M38,297.7l415,332"/>
	<path marker-end="" class="st1" d="M38,353L453,21"/>
	<path marker-end="" class="st1" d="M38,353L453,76.3"/>
	<path marker-end="" class="st1" d="M38,353l415-221.3"/>
	<path marker-end="" class="st1" d="M38,353l415-166"/>
	<path marker-end="" class="st1" d="M38,353l415-110.7"/>
	<path marker-end="" class="st1" d="M38,353l415-55.3"/>
	<path marker-end="" class="st1" d="M38,353h415"/>
	<path marker-end="" class="st1" d="M38,353l415,55.3"/>
	<path marker-end="" class="st1" d="M38,353l415,110.7"/>
	<path marker-end="" class="st1" d="M38,353l415,166"/>
	<path marker-end="" class="st1" d="M38,353l415,221.3"/>
	<path marker-end="" class="st1" d="M38,353l415,276.7"/>
	<path marker-end="" class="st1" d="M38,408.3L453,21"/>
	<path marker-end="" class="st1" d="M38,408.3l415-332"/>
	<path marker-end="" class="st1" d="M38,408.3l415-276.7"/>
	<path marker-end="" class="st1" d="M38,408.3L453,187"/>
	<path marker-end="" class="st1" d="M38,408.3l415-166"/>
	<path marker-end="" class="st1" d="M38,408.3l415-110.7"/>
	<path marker-end="" class="st1" d="M38,408.3L453,353"/>
	<path marker-end="" class="st1" d="M38,408.3h415"/>
	<path marker-end="" class="st1" d="M38,408.3l415,55.3"/>
	<path marker-end="" class="st1" d="M38,408.3L453,519"/>
	<path marker-end="" class="st1" d="M38,408.3l415,166"/>
	<path marker-end="" class="st1" d="M38,408.3l415,221.3"/>
	<path marker-end="" class="st1" d="M38,463.7L453,21"/>
	<path marker-end="" class="st1" d="M38,463.7L453,76.3"/>
	<path marker-end="" class="st1" d="M38,463.7l415-332"/>
	<path marker-end="" class="st1" d="M38,463.7L453,187"/>
	<path marker-end="" class="st1" d="M38,463.7l415-221.3"/>
	<path marker-end="" class="st1" d="M38,463.7l415-166"/>
	<path marker-end="" class="st1" d="M38,463.7L453,353"/>
	<path marker-end="" class="st1" d="M38,463.7l415-55.3"/>
	<path marker-end="" class="st1" d="M38,463.7h415"/>
	<path marker-end="" class="st1" d="M38,463.7L453,519"/>
	<path marker-end="" class="st1" d="M38,463.7l415,110.7"/>
	<path marker-end="" class="st1" d="M38,463.7l415,166"/>
	<path marker-end="" class="st1" d="M38,519L453,21"/>
	<path marker-end="" class="st1" d="M38,519L453,76.3"/>
	<path marker-end="" class="st1" d="M38,519l415-387.3"/>
	<path marker-end="" class="st1" d="M38,519l415-332"/>
	<path marker-end="" class="st1" d="M38,519l415-276.7"/>
	<path marker-end="" class="st1" d="M38,519l415-221.3"/>
	<path marker-end="" class="st1" d="M38,519l415-166"/>
	<path marker-end="" class="st1" d="M38,519l415-110.7"/>
	<path marker-end="" class="st1" d="M38,519l415-55.3"/>
	<path marker-end="" class="st1" d="M38,519h415"/>
	<path marker-end="" class="st1" d="M38,519l415,55.3"/>
	<path marker-end="" class="st1" d="M38,519l415,110.7"/>
	<path marker-end="" class="st1" d="M38,574.3L453,21"/>
	<path marker-end="" class="st1" d="M38,574.3l415-498"/>
	<path marker-end="" class="st1" d="M38,574.3l415-442.7"/>
	<path marker-end="" class="st1" d="M38,574.3L453,187"/>
	<path marker-end="" class="st1" d="M38,574.3l415-332"/>
	<path marker-end="" class="st1" d="M38,574.3l415-276.7"/>
	<path marker-end="" class="st1" d="M38,574.3L453,353"/>
	<path marker-end="" class="st1" d="M38,574.3l415-166"/>
	<path marker-end="" class="st1" d="M38,574.3l415-110.7"/>
	<path marker-end="" class="st1" d="M38,574.3L453,519"/>
	<path marker-end="" class="st1" d="M38,574.3h415"/>
	<path marker-end="" class="st1" d="M38,574.3l415,55.3"/>
	<path marker-end="" class="st1" d="M38,629.7L453,21"/>
	<path marker-end="" class="st1" d="M38,629.7L453,76.3"/>
	<path marker-end="" class="st1" d="M38,629.7l415-498"/>
	<path marker-end="" class="st1" d="M38,629.7L453,187"/>
	<path marker-end="" class="st1" d="M38,629.7l415-387.3"/>
	<path marker-end="" class="st1" d="M38,629.7l415-332"/>
	<path marker-end="" class="st1" d="M38,629.7L453,353"/>
	<path marker-end="" class="st1" d="M38,629.7l415-221.3"/>
	<path marker-end="" class="st1" d="M38,629.7l415-166"/>
	<path marker-end="" class="st1" d="M38,629.7L453,519"/>
	<path marker-end="" class="st1" d="M38,629.7l415-55.3"/>
	<path marker-end="" class="st1" d="M38,629.7h415"/>
	<path marker-end="" class="st1" d="M38,685L453,21"/>
	<path marker-end="" class="st1" d="M38,685L453,76.3"/>
	<path marker-end="" class="st1" d="M38,685l415-553.3"/>
	<path marker-end="" class="st1" d="M38,685l415-498"/>
	<path marker-end="" class="st1" d="M38,685l415-442.7"/>
	<path marker-end="" class="st1" d="M38,685l415-387.3"/>
	<path marker-end="" class="st1" d="M38,685l415-332"/>
	<path marker-end="" class="st1" d="M38,685l415-276.7"/>
	<path marker-end="" class="st1" d="M38,685l415-221.3"/>
	<path marker-end="" class="st1" d="M38,685l415-166"/>
	<path marker-end="" class="st1" d="M38,685l415-110.7"/>
	<path marker-end="" class="st1" d="M38,685l415-55.3"/>
	<path marker-end="" class="st1" d="M38,740.3L453,21"/>
	<path marker-end="" class="st1" d="M38,740.3l415-664"/>
	<path marker-end="" class="st1" d="M38,740.3l415-608.7"/>
	<path marker-end="" class="st1" d="M38,740.3L453,187"/>
	<path marker-end="" class="st1" d="M38,740.3l415-498"/>
	<path marker-end="" class="st1" d="M38,740.3l415-442.7"/>
	<path marker-end="" class="st1" d="M38,740.3L453,353"/>
	<path marker-end="" class="st1" d="M38,740.3l415-332"/>
	<path marker-end="" class="st1" d="M38,740.3l415-276.7"/>
	<path marker-end="" class="st1" d="M38,740.3L453,519"/>
	<path marker-end="" class="st1" d="M38,740.3l415-166"/>
	<path marker-end="" class="st1" d="M38,740.3l415-110.7"/>
	<path marker-end="" class="st1" d="M38,795.7L453,21"/>
	<path marker-end="" class="st1" d="M38,795.7L453,76.3"/>
	<path marker-end="" class="st1" d="M38,795.7l415-664"/>
	<path marker-end="" class="st1" d="M38,795.7L453,187"/>
	<path marker-end="" class="st1" d="M38,795.7l415-553.3"/>
	<path marker-end="" class="st1" d="M38,795.7l415-498"/>
	<path marker-end="" class="st1" d="M38,795.7L453,353"/>
	<path marker-end="" class="st1" d="M38,795.7l415-387.3"/>
	<path marker-end="" class="st1" d="M38,795.7l415-332"/>
	<path marker-end="" class="st1" d="M38,795.7L453,519"/>
	<path marker-end="" class="st1" d="M38,795.7l415-221.3"/>
	<path marker-end="" class="st1" d="M38,795.7l415-166"/>
	<path marker-end="" class="st1" d="M38,851L453,21"/>
	<path marker-end="" class="st1" d="M38,851L453,76.3"/>
	<path marker-end="" class="st1" d="M38,851l415-719.3"/>
	<path marker-end="" class="st1" d="M38,851l415-664"/>
	<path marker-end="" class="st1" d="M38,851l415-608.7"/>
	<path marker-end="" class="st1" d="M38,851l415-553.3"/>
	<path marker-end="" class="st1" d="M38,851l415-498"/>
	<path marker-end="" class="st1" d="M38,851l415-442.7"/>
	<path marker-end="" class="st1" d="M38,851l415-387.3"/>
	<path marker-end="" class="st1" d="M38,851l415-332"/>
	<path marker-end="" class="st1" d="M38,851l415-276.7"/>
	<path marker-end="" class="st1" d="M38,851l415-221.3"/>
	<path marker-end="" class="st1" d="M453,21l415,166"/>
	<path marker-end="" class="st1" d="M453,21l415,221.3"/>
	<path marker-end="" class="st1" d="M453,21l415,276.7"/>
	<path marker-end="" class="st1" d="M453,21l415,332"/>
	<path marker-end="" class="st1" d="M453,21l415,387.3"/>
	<path marker-end="" class="st1" d="M453,21l415,442.7"/>
	<path marker-end="" class="st1" d="M453,21l415,498"/>
	<path marker-end="" class="st1" d="M453,21l415,553.3"/>
	<path marker-end="" class="st1" d="M453,21l415,608.7"/>
	<path marker-end="" class="st1" d="M453,21l415,664"/>
	<path marker-end="" class="st1" d="M453,76.3L868,187"/>
	<path marker-end="" class="st1" d="M453,76.3l415,166"/>
	<path marker-end="" class="st1" d="M453,76.3l415,221.3"/>
	<path marker-end="" class="st1" d="M453,76.3L868,353"/>
	<path marker-end="" class="st1" d="M453,76.3l415,332"/>
	<path marker-end="" class="st1" d="M453,76.3l415,387.3"/>
	<path marker-end="" class="st1" d="M453,76.3L868,519"/>
	<path marker-end="" class="st1" d="M453,76.3l415,498"/>
	<path marker-end="" class="st1" d="M453,76.3l415,553.3"/>
	<path marker-end="" class="st1" d="M453,76.3L868,685"/>
	<path marker-end="" class="st1" d="M453,131.7L868,187"/>
	<path marker-end="" class="st1" d="M453,131.7l415,110.7"/>
	<path marker-end="" class="st1" d="M453,131.7l415,166"/>
	<path marker-end="" class="st1" d="M453,131.7L868,353"/>
	<path marker-end="" class="st1" d="M453,131.7l415,276.7"/>
	<path marker-end="" class="st1" d="M453,131.7l415,332"/>
	<path marker-end="" class="st1" d="M453,131.7L868,519"/>
	<path marker-end="" class="st1" d="M453,131.7l415,442.7"/>
	<path marker-end="" class="st1" d="M453,131.7l415,498"/>
	<path marker-end="" class="st1" d="M453,131.7L868,685"/>
	<path marker-end="" class="st1" d="M453,187h415"/>
	<path marker-end="" class="st1" d="M453,187l415,55.3"/>
	<path marker-end="" class="st1" d="M453,187l415,110.7"/>
	<path marker-end="" class="st1" d="M453,187l415,166"/>
	<path marker-end="" class="st1" d="M453,187l415,221.3"/>
	<path marker-end="" class="st1" d="M453,187l415,276.7"/>
	<path marker-end="" class="st1" d="M453,187l415,332"/>
	<path marker-end="" class="st1" d="M453,187l415,387.3"/>
	<path marker-end="" class="st1" d="M453,187l415,442.7"/>
	<path marker-end="" class="st1" d="M453,187l415,498"/>
	<path marker-end="" class="st1" d="M453,242.3L868,187"/>
	<path marker-end="" class="st1" d="M453,242.3h415"/>
	<path marker-end="" class="st1" d="M453,242.3l415,55.3"/>
	<path marker-end="" class="st1" d="M453,242.3L868,353"/>
	<path marker-end="" class="st1" d="M453,242.3l415,166"/>
	<path marker-end="" class="st1" d="M453,242.3l415,221.3"/>
	<path marker-end="" class="st1" d="M453,242.3L868,519"/>
	<path marker-end="" class="st1" d="M453,242.3l415,332"/>
	<path marker-end="" class="st1" d="M453,242.3l415,387.3"/>
	<path marker-end="" class="st1" d="M453,242.3L868,685"/>
	<path marker-end="" class="st1" d="M453,297.7L868,187"/>
	<path marker-end="" class="st1" d="M453,297.7l415-55.3"/>
	<path marker-end="" class="st1" d="M453,297.7h415"/>
	<path marker-end="" class="st1" d="M453,297.7L868,353"/>
	<path marker-end="" class="st1" d="M453,297.7l415,110.7"/>
	<path marker-end="" class="st1" d="M453,297.7l415,166"/>
	<path marker-end="" class="st1" d="M453,297.7L868,519"/>
	<path marker-end="" class="st1" d="M453,297.7l415,276.7"/>
	<path marker-end="" class="st1" d="M453,297.7l415,332"/>
	<path marker-end="" class="st1" d="M453,297.7L868,685"/>
	<path marker-end="" class="st1" d="M453,353l415-166"/>
	<path marker-end="" class="st1" d="M453,353l415-110.7"/>
	<path marker-end="" class="st1" d="M453,353l415-55.3"/>
	<path marker-end="" class="st1" d="M453,353h415"/>
	<path marker-end="" class="st1" d="M453,353l415,55.3"/>
	<path marker-end="" class="st1" d="M453,353l415,110.7"/>
	<path marker-end="" class="st1" d="M453,353l415,166"/>
	<path marker-end="" class="st1" d="M453,353l415,221.3"/>
	<path marker-end="" class="st1" d="M453,353l415,276.7"/>
	<path marker-end="" class="st1" d="M453,353l415,332"/>
	<path marker-end="" class="st1" d="M453,408.3L868,187"/>
	<path marker-end="" class="st1" d="M453,408.3l415-166"/>
	<path marker-end="" class="st1" d="M453,408.3l415-110.7"/>
	<path marker-end="" class="st1" d="M453,408.3L868,353"/>
	<path marker-end="" class="st1" d="M453,408.3h415"/>
	<path marker-end="" class="st1" d="M453,408.3l415,55.3"/>
	<path marker-end="" class="st1" d="M453,408.3L868,519"/>
	<path marker-end="" class="st1" d="M453,408.3l415,166"/>
	<path marker-end="" class="st1" d="M453,408.3l415,221.3"/>
	<path marker-end="" class="st1" d="M453,408.3L868,685"/>
	<path marker-end="" class="st1" d="M453,463.7L868,187"/>
	<path marker-end="" class="st1" d="M453,463.7l415-221.3"/>
	<path marker-end="" class="st1" d="M453,463.7l415-166"/>
	<path marker-end="" class="st1" d="M453,463.7L868,353"/>
	<path marker-end="" class="st1" d="M453,463.7l415-55.3"/>
	<path marker-end="" class="st1" d="M453,463.7h415"/>
	<path marker-end="" class="st1" d="M453,463.7L868,519"/>
	<path marker-end="" class="st1" d="M453,463.7l415,110.7"/>
	<path marker-end="" class="st1" d="M453,463.7l415,166"/>
	<path marker-end="" class="st1" d="M453,463.7L868,685"/>
	<path marker-end="" class="st1" d="M453,519l415-332"/>
	<path marker-end="" class="st1" d="M453,519l415-276.7"/>
	<path marker-end="" class="st1" d="M453,519l415-221.3"/>
	<path marker-end="" class="st1" d="M453,519l415-166"/>
	<path marker-end="" class="st1" d="M453,519l415-110.7"/>
	<path marker-end="" class="st1" d="M453,519l415-55.3"/>
	<path marker-end="" class="st1" d="M453,519h415"/>
	<path marker-end="" class="st1" d="M453,519l415,55.3"/>
	<path marker-end="" class="st1" d="M453,519l415,110.7"/>
	<path marker-end="" class="st1" d="M453,519l415,166"/>
	<path marker-end="" class="st1" d="M453,574.3L868,187"/>
	<path marker-end="" class="st1" d="M453,574.3l415-332"/>
	<path marker-end="" class="st1" d="M453,574.3l415-276.7"/>
	<path marker-end="" class="st1" d="M453,574.3L868,353"/>
	<path marker-end="" class="st1" d="M453,574.3l415-166"/>
	<path marker-end="" class="st1" d="M453,574.3l415-110.7"/>
	<path marker-end="" class="st1" d="M453,574.3L868,519"/>
	<path marker-end="" class="st1" d="M453,574.3h415"/>
	<path marker-end="" class="st1" d="M453,574.3l415,55.3"/>
	<path marker-end="" class="st1" d="M453,574.3L868,685"/>
	<path marker-end="" class="st1" d="M453,629.7L868,187"/>
	<path marker-end="" class="st1" d="M453,629.7l415-387.3"/>
	<path marker-end="" class="st1" d="M453,629.7l415-332"/>
	<path marker-end="" class="st1" d="M453,629.7L868,353"/>
	<path marker-end="" class="st1" d="M453,629.7l415-221.3"/>
	<path marker-end="" class="st1" d="M453,629.7l415-166"/>
	<path marker-end="" class="st1" d="M453,629.7L868,519"/>
	<path marker-end="" class="st1" d="M453,629.7l415-55.3"/>
	<path marker-end="" class="st1" d="M453,629.7h415"/>
	<path marker-end="" class="st1" d="M453,629.7L868,685"/>
	<path marker-end="" class="st1" d="M38,21l415,664"/>
	<path marker-end="" class="st1" d="M38,21l415,719.3"/>
	<path marker-end="" class="st1" d="M38,21l415,774.7"/>
	<path marker-end="" class="st1" d="M38,21l415,830"/>
	<path marker-end="" class="st1" d="M38,76.3L453,685"/>
	<path marker-end="" class="st1" d="M38,76.3l415,664"/>
	<path marker-end="" class="st1" d="M38,76.3l415,719.3"/>
	<path marker-end="" class="st1" d="M38,76.3L453,851"/>
	<path marker-end="" class="st1" d="M38,131.7L453,685"/>
	<path marker-end="" class="st1" d="M38,131.7l415,608.7"/>
	<path marker-end="" class="st1" d="M38,131.7l415,664"/>
	<path marker-end="" class="st1" d="M38,131.7L453,851"/>
	<path marker-end="" class="st1" d="M38,187l415,498"/>
	<path marker-end="" class="st1" d="M38,187l415,553.3"/>
	<path marker-end="" class="st1" d="M38,187l415,608.7"/>
	<path marker-end="" class="st1" d="M38,187l415,664"/>
	<path marker-end="" class="st1" d="M38,242.3L453,685"/>
	<path marker-end="" class="st1" d="M38,242.3l415,498"/>
	<path marker-end="" class="st1" d="M38,242.3l415,553.3"/>
	<path marker-end="" class="st1" d="M38,242.3L453,851"/>
	<path marker-end="" class="st1" d="M38,297.7L453,685"/>
	<path marker-end="" class="st1" d="M38,297.7l415,442.7"/>
	<path marker-end="" class="st1" d="M38,297.7l415,498"/>
	<path marker-end="" class="st1" d="M38,297.7L453,851"/>
	<path marker-end="" class="st1" d="M38,353l415,332"/>
	<path marker-end="" class="st1" d="M38,353l415,387.3"/>
	<path marker-end="" class="st1" d="M38,353l415,442.7"/>
	<path marker-end="" class="st1" d="M38,353l415,498"/>
	<path marker-end="" class="st1" d="M38,408.3L453,685"/>
	<path marker-end="" class="st1" d="M38,408.3l415,332"/>
	<path marker-end="" class="st1" d="M38,408.3l415,387.3"/>
	<path marker-end="" class="st1" d="M38,408.3L453,851"/>
	<path marker-end="" class="st1" d="M38,463.7L453,685"/>
	<path marker-end="" class="st1" d="M38,463.7l415,276.7"/>
	<path marker-end="" class="st1" d="M38,463.7l415,332"/>
	<path marker-end="" class="st1" d="M38,463.7L453,851"/>
	<path marker-end="" class="st1" d="M38,519l415,166"/>
	<path marker-end="" class="st1" d="M38,519l415,221.3"/>
	<path marker-end="" class="st1" d="M38,519l415,276.7"/>
	<path marker-end="" class="st1" d="M38,519l415,332"/>
	<path marker-end="" class="st1" d="M38,574.3L453,685"/>
	<path marker-end="" class="st1" d="M38,574.3l415,166"/>
	<path marker-end="" class="st1" d="M38,574.3l415,221.3"/>
	<path marker-end="" class="st1" d="M38,574.3L453,851"/>
	<path marker-end="" class="st1" d="M38,629.7L453,685"/>
	<path marker-end="" class="st1" d="M38,629.7l415,110.7"/>
	<path marker-end="" class="st1" d="M38,629.7l415,166"/>
	<path marker-end="" class="st1" d="M38,629.7L453,851"/>
	<path marker-end="" class="st1" d="M38,685h415"/>
	<path marker-end="" class="st1" d="M38,685l415,55.3"/>
	<path marker-end="" class="st1" d="M38,685l415,110.7"/>
	<path marker-end="" class="st1" d="M38,685l415,166"/>
	<path marker-end="" class="st1" d="M38,740.3L453,685"/>
	<path marker-end="" class="st1" d="M38,740.3h415"/>
	<path marker-end="" class="st1" d="M38,740.3l415,55.3"/>
	<path marker-end="" class="st1" d="M38,740.3L453,851"/>
	<path marker-end="" class="st1" d="M38,795.7L453,685"/>
	<path marker-end="" class="st1" d="M38,795.7l415-55.3"/>
	<path marker-end="" class="st1" d="M38,795.7h415"/>
	<path marker-end="" class="st1" d="M38,795.7L453,851"/>
	<path marker-end="" class="st1" d="M38,851l415-166"/>
	<path marker-end="" class="st1" d="M38,851l415-110.7"/>
	<path marker-end="" class="st1" d="M38,851l415-55.3"/>
	<path marker-end="" class="st1" d="M38,851h415"/>
	<path marker-end="" class="st1" d="M453,685l415-498"/>
	<path marker-end="" class="st1" d="M453,685l415-442.7"/>
	<path marker-end="" class="st1" d="M453,685l415-387.3"/>
	<path marker-end="" class="st1" d="M453,685l415-332"/>
	<path marker-end="" class="st1" d="M453,685l415-276.7"/>
	<path marker-end="" class="st1" d="M453,685l415-221.3"/>
	<path marker-end="" class="st1" d="M453,685l415-166"/>
	<path marker-end="" class="st1" d="M453,685l415-110.7"/>
	<path marker-end="" class="st1" d="M453,685l415-55.3"/>
	<path marker-end="" class="st1" d="M453,685h415"/>
	<path marker-end="" class="st1" d="M453,740.3L868,187"/>
	<path marker-end="" class="st1" d="M453,740.3l415-498"/>
	<path marker-end="" class="st1" d="M453,740.3l415-442.7"/>
	<path marker-end="" class="st1" d="M453,740.3L868,353"/>
	<path marker-end="" class="st1" d="M453,740.3l415-332"/>
	<path marker-end="" class="st1" d="M453,740.3l415-276.7"/>
	<path marker-end="" class="st1" d="M453,740.3L868,519"/>
	<path marker-end="" class="st1" d="M453,740.3l415-166"/>
	<path marker-end="" class="st1" d="M453,740.3l415-110.7"/>
	<path marker-end="" class="st1" d="M453,740.3L868,685"/>
	<path marker-end="" class="st1" d="M453,795.7L868,187"/>
	<path marker-end="" class="st1" d="M453,795.7l415-553.3"/>
	<path marker-end="" class="st1" d="M453,795.7l415-498"/>
	<path marker-end="" class="st1" d="M453,795.7L868,353"/>
	<path marker-end="" class="st1" d="M453,795.7l415-387.3"/>
	<path marker-end="" class="st1" d="M453,795.7l415-332"/>
	<path marker-end="" class="st1" d="M453,795.7L868,519"/>
	<path marker-end="" class="st1" d="M453,795.7l415-221.3"/>
	<path marker-end="" class="st1" d="M453,795.7l415-166"/>
	<path marker-end="" class="st1" d="M453,795.7L868,685"/>
	<path marker-end="" class="st1" d="M453,851l415-664"/>
	<path marker-end="" class="st1" d="M453,851l415-608.7"/>
	<path marker-end="" class="st1" d="M453,851l415-553.3"/>
	<path marker-end="" class="st1" d="M453,851l415-498"/>
	<path marker-end="" class="st1" d="M453,851l415-442.7"/>
	<path marker-end="" class="st1" d="M453,851l415-387.3"/>
	<path marker-end="" class="st1" d="M453,851l415-332"/>
	<path marker-end="" class="st1" d="M453,851l415-276.7"/>
	<path marker-end="" class="st1" d="M453,851l415-221.3"/>
	<path marker-end="" class="st1" d="M453,851l415-166"/>
</g>
</svg>
